<?xml version="1.0" encoding="utf-8"?>
<!-- Generator: Adobe Illustrator 17.0.2, SVG Export Plug-In . SVG Version: 6.00 Build 0)  -->
<!DOCTYPE svg PUBLIC "-//W3C//DTD SVG 1.1//EN" "http://www.w3.org/Graphics/SVG/1.1/DTD/svg11.dtd">
<svg version="1.1" id="Layer_1" xmlns="http://www.w3.org/2000/svg" xmlns:xlink="http://www.w3.org/1999/xlink" x="0px" y="0px"
	 width="240.275px" height="160.001px" viewBox="0 0 240.275 160.001" enable-background="new 0 0 240.275 160.001"
	 xml:space="preserve">
<g>
	<path fill="#60676D" d="M60.015,80.001L4.547,25.763c-6.029-5.895-6.029-15.45,0-21.34c6.029-5.895,15.796-5.895,21.825,0
		l33.643,32.899L93.678,4.418c6.029-5.885,15.796-5.89,21.825,0.005c6.029,5.895,6.029,15.45,0,21.345L60.015,80.001z"/>
</g>
<g>
	<path fill="#D4D9DD" d="M180.265,80.001l-55.468-54.239c-6.029-5.895-6.029-15.45,0-21.34c6.029-5.895,15.796-5.895,21.825,0
		l33.643,32.899l33.663-32.904c6.029-5.885,15.796-5.89,21.826,0.005s6.029,15.45,0,21.345L180.265,80.001z"/>
</g>
<g>
	<path fill="#D4D9DD" d="M180.285,80.001l55.468,54.239c6.029,5.895,6.029,15.45,0,21.34c-6.029,5.895-15.796,5.895-21.826,0
		l-33.643-32.899l-33.663,32.904c-6.029,5.885-15.796,5.89-21.825-0.005c-6.029-5.895-6.029-15.45,0-21.345L180.285,80.001z"/>
</g>
<g>
	<path fill="#60676D" d="M60.035,80.001l55.468,54.239c6.029,5.895,6.029,15.45,0,21.34c-6.029,5.895-15.796,5.895-21.825,0
		l-33.643-32.899l-33.663,32.904c-6.029,5.885-15.796,5.89-21.825-0.005s-6.029-15.45,0-21.345L60.035,80.001z"/>
</g>
</svg>
